<?xml version="1.0" encoding="UTF-8"?><svg id="Layer_1" xmlns="http://www.w3.org/2000/svg" viewBox="0 0 677.9 616.9"><defs><style>.cls-1{fill:#fff;}.cls-2{fill:#fde9e7;}.cls-3{fill:#e00400;}</style></defs><g><rect class="cls-2" x="314.63" y="95.78" width="250.7" height="518.5"/><path d="M567.8,616.8h-255.7V93.3h255.7V616.8Zm-250.7-5h245.7V98.3h-245.7V611.8Z"/></g><rect class="cls-1" x="334.6" y="115.8" width="210.8" height="478.6"/><g><path class="cls-1" d="M286,591.3s36.9-31.8,40.8-3.8,0,26.8,0,26.8h-65.2l.1-22.5,24.3-.5Z"/><path d="M327.8,616.9l-1-.1h-67.6l.1-27.4,25.8-.5c4.4-3.7,23.7-19.1,35.8-14.6,4.6,1.8,7.5,6.1,8.4,12.9,3.5,25.5,.8,27.9-.4,28.9l-1.1,.8Zm-63.7-5.1h61.5c.4-1.7,1-7.2-1.3-24-.7-4.9-2.4-7.8-5.2-8.9-8.5-3.2-25.6,9.2-31.4,14.3l-.7,.6-22.7,.5-.2,17.5Z"/></g><g><path class="cls-1" d="M195.8,214.7s-1.3-27.8-.5-30.4c.8-2.5,26.5-2.1,26.8-1s4.1,30.9,4.1,30.9l-30.4,.5Z"/><path d="M193.4,217.3l-.1-2.4c-.5-10.6-1.2-28.7-.4-31.3,.5-1.5,1.2-3.9,20.5-3.6,9.6,.2,10.6,.8,11.1,2.6,.3,1.1,2.7,20.1,4.2,31.3l.4,2.8-35.7,.6Zm4.2-31.4c-.2,3.3,.1,15.1,.6,26.3l25.2-.4c-1.2-9.7-2.9-22.2-3.5-26.5-4.6-.5-18.6-.5-22.3,.6Z"/></g><g><path class="cls-1" d="M238.9,122.9s-4,18,0,34.9-12.5,51.5-41.9,22.4,40.1-57.4,40.1-57.4h1.8v.1Z"/><path d="M218.3,194c-6.1,0-13.9-2.9-23-12-6.5-6.4-9.1-13.4-7.6-20.7,4.5-22.6,46.7-40,48.5-40.7l.9-.2h5l-.7,3c0,.2-3.9,17.7,0,33.8,2.6,11.1-2.6,28.1-13.7,34.3-2.6,1.4-5.7,2.5-9.4,2.5Zm17.4-67.8c-8.7,3.9-39.8,18.9-43.2,36.1-1.1,5.6,.9,10.9,6.2,16.2,10,9.8,19.1,12.8,26.5,8.7,9-5.1,13.4-19.6,11.3-28.8-3.1-12.7-1.7-25.9-.8-32.2Z"/></g><path d="M196.6,198.6s-17.6-32-22.8-49.2c-5.1-17.3-11.4-36,17.3-35.3s43.4-15.1,51.5-4.8c8.1,10.3-4.8,28.3-10.3,31.2s-18,4.8-16.2,15.8-3.7,9.2-3.7,9.2c0,0-7-13.8-11.4-13.3s-7.4,11.9-1.8,22.2-2.6,24.2-2.6,24.2Z"/><g><path class="cls-3" d="M233.3,373.2c-.8,14-5.6,35.9-11.7,58-7.4,26.7-16.8,53.6-23.3,67.2-11.9,24.8-68.9,112.4-68.9,112.4,0,0-22.6,15.4-17.5-18.2,5.1-33.6,50.3-110.2,50.3-110.2,0-34.7,9-81,9-81-9-33.1,2.4-47.6,2.4-47.6,0,0,1.8-7.1,2.3-7.1,7.2-.4,59-2.3,57.4,26.5Z"/><path d="M119.4,616.8c-1.8,0-3.6-.4-5.3-1.4-5-3.1-6.5-10.7-4.7-23.1,4.9-32.6,45.7-102.8,50.2-110.5,.1-32.4,8-74.8,9-80.3-8.2-30.7,.7-45.9,2.7-48.7,1.8-7.2,2.5-8.4,4.5-8.5,6.5-.4,39.8-1.4,53.7,12.5,4.5,4.5,6.6,10.1,6.2,16.6h0c-.7,12.9-4.9,33.7-11.8,58.5-7.4,26.6-16.8,53.8-23.4,67.6-11.8,24.7-66.7,109.1-69.1,112.7l-.7,.7c-.7,.4-5.9,3.9-11.3,3.9Zm58.1-267.7c-.4,1.3-1,3.4-1.5,5.3l-.5,.9c-.1,.1-10.5,14.1-2,45.3l.2,.6-.1,.6c-.1,.5-9,46.5-9,80.6v.7l-.4,.6c-.4,.8-45,76.5-49.9,109.3-2,13.3,.6,17.1,2.4,18.2,3,1.9,8.6-.8,10.9-2.2,4.4-6.8,57.2-88.2,68.5-111.7,6.5-13.6,15.8-40.4,23.1-66.8,6.8-24.5,10.9-44.9,11.6-57.4,.3-5.1-1.3-9.3-4.8-12.8-11.6-11.7-40.8-11.5-48.5-11.2Z"/></g><g><path class="cls-3" d="M180.8,335.1c0,3.3-16.8,52.4,14.1,66.2,30.9,13.7,28,31.6,38.4,70.8,11.8,44.5,28.3,118.8,28.3,118.8l38.9-20.1s-37.8-184.3-51.4-218.2-68.3-17.5-68.3-17.5Z"/><path d="M259.9,594.6l-.7-3.2c-.2-.7-16.6-74.8-28.3-118.7-2.1-7.8-3.6-14.8-5-20.9-5.6-25.1-8.4-37.7-32-48.2-28.7-12.8-19.3-52.5-16.3-65.5,.4-1.5,.6-2.5,.7-3l.2-1.7,1.6-.6c2.3-.7,57.2-16.8,71.4,18.9,13.5,33.8,50,211.1,51.5,218.6l.4,1.9-43.5,22.4Zm-76.9-257.5c-.1,.5-.3,1.2-.5,2.1-2.9,12.1-11.5,48.7,13.4,59.8,26,11.5,29.3,26.6,34.9,51.7,1.4,6.1,2.9,13.1,4.9,20.7,10.3,38.8,24.3,101.1,27.6,115.8l34.3-17.8c-4-19.4-38.3-184.4-50.9-216-11.2-28.4-55.1-18.5-63.7-16.3Z"/></g><g><path class="cls-2" d="M121.8,387s8.5-68.8,13-85.6c4.4-16.7,40-90.6,46-90.6s12.4,49.9,9.4,56.5-32.9,37.8-33.8,41.9-23.3,84.4-23.3,84.4c0,0-9.7-1.4-11.3-6.6Z"/><path d="M134.9,396.4l-2.2-.3c-1.1-.2-11.3-1.8-13.3-8.3l-.2-.5,.1-.5c.4-2.8,8.6-69.2,13-85.9,3.1-11.6,39.1-92.5,48.5-92.5,1.5,0,2.9,.9,4,2.7,5.4,8.4,11,50.2,7.7,57.4-1.6,3.4-8.2,11.2-18.2,22.7-6.2,7.1-14.7,16.9-15.4,18.9-.9,4-22.4,81.1-23.3,84.4l-.7,1.9Zm-10.6-9.8c1,2,4.3,3.3,7,4,3.6-13,21.8-78.4,22.6-82,.6-2.4,5.2-8,16.5-20.9,7.2-8.2,16.1-18.5,17.4-21.5,2.7-6-3.2-47.5-7.4-52.8-6.1,5.1-38.6,70.6-43.4,88.6-4,15.6-11.8,77.7-12.7,84.6Z"/></g><g><path class="cls-1" d="M121.8,387s-4.7,11.6-5.5,22.3,5.2,30.1,10.5,18.2c5.2-11.9,5-22.3,6.9-21.5s6.1,2.2,1.7-8c-4.4-10.2,3.5-11.7-.1-11.9s-13.5,.9-13.5,.9Z"/><path d="M123.3,433.7c-.4,0-.8-.1-1.1-.1-6.1-1.5-9-16.9-8.4-24.5,.8-11,5.5-22.6,5.7-23.1l.5-1.4,1.5-.2c1-.1,10.1-1.2,13.9-.9,.6,0,2.3,.2,3,1.7s-.3,2.8-.7,3.4c-.8,1.1-2.4,3.1-.1,8.3,2.6,5.9,2.8,9.1,1,10.9-1.2,1.2-2.7,1.2-3.9,1-.2,.8-.4,1.8-.6,2.7-.8,4.1-2.1,10.3-5,16.9-1.9,4.2-4.1,5.3-5.8,5.3Zm.2-44.4c-1.2,3.3-4.2,12.1-4.8,20.2-.6,8.1,2.7,18,4.5,19.2,0-.2,.5-.7,1.2-2.2,2.7-6.1,3.9-12,4.7-15.8,.8-4.1,1.2-6,2.9-6.9l1.1-.5,1.5,.5h0c-.2-.9-.6-2.4-1.6-4.7-2.1-4.8-1.8-8.2-1-10.4-2.7,0-6.2,.3-8.5,.6Z"/></g><g><path class="cls-2" d="M177.8,213.2s9.2-11.3,32.3-5.1c23.2,6.2,46,6.6,43.7,76.1-2.3,69.5-5.5,70.2-5.5,70.2,0,0-55,28.7-75.4-1.5,0,0,9.2-69.1,5.9-92.3"/><path d="M202.8,369.3c-12.3,0-24.2-3.7-31.8-15l-.5-.8,.1-.9c.1-.7,9.1-69,5.9-91.6l4.9-.7c3.1,22-4.6,83.2-5.7,92,18.1,25,64.7,3.3,70.9,.2,.7-2.2,3.1-13.7,4.9-68.4,2-62.5-16-67.1-36.9-72.3-1.6-.4-3.3-.8-5-1.3-21.1-5.7-29.4,3.9-29.8,4.3l-3.9-3.2c.4-.5,10.5-12.5,34.9-5.9,1.6,.4,3.3,.9,4.9,1.3,22,5.5,42.8,10.8,40.7,77.3-2.1,67.1-5.1,71.8-7.1,72.5-2.9,1.5-25.2,12.5-46.5,12.5Z"/></g><g><path class="cls-2" d="M241.7,222.6s14.8,14.6,20.7,57.6c5.9,43,24.6,98,26.5,101.6s-9.6,9.5-13.2,7.3-26.4-49.3-34-65.8-15.3-72.9-15.3-72.9"/><path d="M277.7,392c-1.3,0-2.5-.2-3.4-.8-5.5-3.3-34.7-66.3-34.9-66.9-7.6-16.7-15.2-71.2-15.5-73.5l5-.7c.1,.6,7.7,56.1,15.1,72.1,9.4,20.5,29.6,61.7,33.1,64.8,.2,.1,1.9,.2,4.6-.9,3-1.2,4.8-3,4.9-3.6-2.3-4.2-20.8-59.6-26.7-102-5.7-41.4-19.9-56-20-56.2l3.5-3.6c.6,.6,15.5,15.7,21.5,59.1,5.9,43.4,24.6,97.6,26.2,100.8,.5,1,1.3,3.6-1.9,6.6-2.7,2.4-7.5,4.8-11.5,4.8Z"/></g><g><path class="cls-2" d="M313.2,485.9h-46.54c-5.97,0-10.86-4.89-10.86-10.86v-68.99c0-5.97,4.89-10.86,10.86-10.86h37.19c5.97,0,10.86,4.89,10.86,10.86v78.34c-.1,.8-.7,1.5-1.5,1.5Z"/><path d="M299.9,488.4h-29.4c-9.5,0-17.2-7.7-17.2-17.2v-61.2c0-9.5,7.7-17.2,17.2-17.2h29.4c9.5,0,17.2,7.7,17.2,17.2v61.2c0,9.4-7.7,17.2-17.2,17.2Zm-29.4-90.7c-6.7,0-12.2,5.5-12.2,12.2v61.2c0,6.7,5.5,12.2,12.2,12.2h29.4c6.7,0,12.2-5.5,12.2-12.2v-61.2c0-6.7-5.5-12.2-12.2-12.2h-29.4Z"/></g><g><path class="cls-1" d="M354.6,445.7v132.6c0,12.9-9.9,23.5-22.1,23.5h-94.7c-12.1,0-22-10.6-22-23.5v-132.6c0-12.9,9.9-23.5,22-23.5h94.8c10.9,0,20,8.5,21.7,19.5,.2,1.3,.3,2.6,.3,4Z"/><path d="M332.6,604.3h-94.7c-13.5,0-24.5-11.6-24.5-26v-132.6c0-14.3,11-26,24.5-26h94.7c12,0,22.2,9.1,24.2,21.6,.2,1.4,.4,2.9,.4,4.4v132.6c-.1,14.3-11.1,26-24.6,26Zm-94.7-179.6c-10.8,0-19.5,9.4-19.5,21v132.6c0,11.6,8.8,21,19.5,21h94.7c10.8,0,19.6-9.4,19.6-21v-132.6c0-1.2-.1-2.4-.3-3.6-1.6-9.9-9.9-17.4-19.3-17.4h-94.7Z"/></g><g><path class="cls-3" d="M354.6,445.7v132.6c0,12.9-9.9,23.5-22.1,23.5h-92.8c-.2-1.3-.3-2.6-.3-3.9v-132.7c0-12.9,9.9-23.5,22-23.5h92.8c.3,1.3,.4,2.6,.4,4Z"/><path d="M332.6,604.3h-94.8l-.4-2c-.3-1.4-.4-2.9-.4-4.4v-132.7c0-14.3,11-26,24.5-26h94.9l.3,2.1c.2,1.4,.4,2.9,.4,4.4v132.6c0,14.3-11,26-24.5,26Zm-90.6-5h90.6c10.8,0,19.6-9.4,19.6-21v-134.1h-90.6c-10.8,0-19.5,9.4-19.5,21v132.6c-.1,.5-.1,1-.1,1.5Z"/></g><g><path class="cls-3" d="M301.6,403h-34.2c-.2,0-.4-.2-.4-.4v-14.7c0-.2,.2-.4,.4-.4h34.2c.2,0,.4,.2,.4,.4v14.7c0,.2-.2,.4-.4,.4Z"/><path d="M298.1,405.5h-27.3c-3.5,0-6.4-2.9-6.4-6.4v-7.7c0-3.5,2.8-6.4,6.4-6.4h27.3c3.5,0,6.4,2.9,6.4,6.4v7.7c-.1,3.5-2.9,6.4-6.4,6.4Zm-27.3-15.5c-.7,0-1.4,.6-1.4,1.4v7.7c0,.8,.6,1.4,1.4,1.4h27.3c.8,0,1.4-.6,1.4-1.4v-7.7c0-.8-.6-1.4-1.4-1.4h-27.3Z"/></g><g><path class="cls-1" d="M275.6,389s-2.2,18.8,7.8,17.5c9.9-1.3,17.4-6.3,5.7-22.3l-13.5,4.8Z"/><path d="M282.4,409c-2.2,0-4.1-.8-5.6-2.2-5.1-5-3.9-16.8-3.7-18.1l.2-1.5,16.7-5.9,1.1,1.5c5.8,8,7.7,14.1,5.7,18.8-1.7,4-6.1,6.5-13.1,7.4-.4,0-.9,0-1.3,0Zm-4.4-18.2c-.3,4.2,.2,10.2,2.4,12.4,.5,.5,1.2,1,2.7,.8,3.5-.5,7.9-1.6,9.1-4.4,1.1-2.6-.3-6.9-4.1-12.4l-10.1,3.6Z"/></g><g><path class="cls-1" d="M135.5,599.3s36.9-20.8,40.8-2.5c3.9,18.3,0,17.5,0,17.5H111.2l.1-14.7,24.2-.3Z"/><path d="M176.3,616.8c-.2,0-.4,0-.6-.1H108.6l.1-19.6,26.1-.4c4.5-2.4,26.2-13.8,37.5-8.7,3.3,1.5,5.5,4.3,6.3,8.2,3,14.2,1.6,17.9,.1,19.5-.7,.7-1.5,1.1-2.4,1.1Zm-.5-5h.4c-.1-.1-.3,0-.4,0Zm-62.2,0h61.6c.3-1.2,.6-4.8-1.5-14.5-.5-2.3-1.6-3.8-3.5-4.7-8.2-3.7-27,5.1-33.6,8.8l-1.2,.3-21.8,.3v9.8Z"/></g><path d="M174,223.4l-4.7-1.7c.2-.6,5.2-14.1,19.9-17.2l1,4.9c-11.9,2.5-16,13.5-16.2,14Z"/><g><path class="cls-3" d="M438.6,5.9l-14,31.6-18.8-8.2,11,45.3c.5,2.2-2.2,3.7-3.8,2.1l-21.4-21.9-7,14.4-24-4.8,8.6,27.1-8.6,4.6,39,32.6-5.1,17.2,32.7-6.1c4.5-.8,8.7,2.7,8.5,7.4l-.9,25.8,10.1-2.5-1.3-23.9c-.3-4.8,4.2-8.5,8.9-7.4l32.1,7.6-4.2-17.8,39-33.5-8.9-6,7.4-26-21.3,3.7-6.6-12.4-22.8,23.1c-1.5,1.6-4.2,.2-3.8-2l8.8-47.7-17.5,8.8-16.1-31.1Z"/><path d="M432.1,176.2l1-29.1c0-1.4-.5-2.8-1.6-3.8s-2.6-1.3-3.9-1.1l-36.7,6.8,5.8-19.6-40.6-33.9,10-5.4-9.3-29.1,26.3,5.3,7.8-15.9,23.8,24.4-12.6-49.9,21.1,9.2L438.3,0l17.5,33.6,19.8-9.9-9.7,52.7,24.7-25.8,7.3,13.8,23.4-4.1-8,28.1,10.1,6.8-40.3,34.7,4.8,20.3-36-8.5c-1.5-.3-3,0-4.1,1-1.2,1-1.8,2.4-1.7,3.9l1.4,26-15.4,3.6Zm-3.6-38.9c2.3,0,4.5,.8,6.3,2.4,2.3,1.9,3.5,4.7,3.4,7.7l-.8,22.5,4.9-1.2-1.2-21.8c-.2-3.1,1.1-6,3.5-8s5.5-2.7,8.5-2l28.2,6.7-3.6-15.4,37.7-32.4-7.7-5.2,6.8-23.9-19.1,3.3-5.8-10.9-20.4,20.7c-1.5,1.5-3.7,1.8-5.6,.9-1.9-1-2.9-3-2.5-5.1l7.9-42.7-15.3,7.5-14.9-28.7-12.9,29.1-16.4-7.2,9.8,40.4c.5,2.1-.4,4.2-2.3,5.3-1.9,1-4.2,.7-5.7-.8l-18.9-19.4-6.4,13-21.7-4.4,8,25-7.2,3.9,37.4,31.3-4.5,14.9,28.7-5.3c.6-.2,1.2-.2,1.8-.2Z"/></g><g><rect x="81.6" y="331.9" width="40.2" height="5"/><rect x="69.3" y="331.9" width="3.2" height="5"/><rect x="34.3" y="331.9" width="31.8" height="5"/><rect x="37.4" y="357.2" width="51.9" height="5"/><rect x="13" y="378" width="87.4" height="5"/><rect y="398.9" width="18.6" height="5"/><rect x="44.5" y="419.7" width="49.3" height="5"/></g><rect x="44.5" y="611.8" width="633.4" height="5"/><g><rect class="cls-3" x="537.1" y="227.8" width="28.2" height="386.5"/><path d="M567.8,616.8h-33.2V225.3h33.2v391.5Zm-28.2-5h23.2V230.3h-23.2v381.5Z"/></g></svg>