<svg id="Layer_1" data-name="Layer 1" xmlns="http://www.w3.org/2000/svg" xmlns:xlink="http://www.w3.org/1999/xlink" viewBox="0 0 230.2 76.17"><defs><style>.cls-1,.cls-9{fill:none;}.cls-2{clip-path:url(#clip-path);}.cls-3{fill:#434444;}.cls-4{clip-path:url(#clip-path-2);}.cls-5{fill:#929393;}.cls-6{fill:#fff;}.cls-7{fill:#676868;}.cls-8{fill-rule:evenodd;}.cls-9{stroke:#e00400;stroke-miterlimit:10;stroke-width:1.2px;}</style><clipPath id="clip-path" transform="translate(7.3 4.78)"><path class="cls-1" d="M31.22,67.71h1.2L32,52.15l1.1-.93c5,.54,9.46,1.09,14.39,1.72l-1.25-4.23a2,2,0,0,1,.62-2l14.47-12-3-1.41c-1.33-.47-.94-1.25-.47-3L60.08,22l-8.37,1.8A1.2,1.2,0,0,1,50.23,23a.43.43,0,0,0,0-.05v-.14l-1-3.84-6.7,7.67c-.94,1.17-2.82,1.17-2.27-1.57l2.9-15.48L39.3,11.68c-1.1.62-2.11.7-2.74-.39l-5.34-10-5.32,10c-.62,1.09-1.64,1-2.73.39l-3.83-2,2.88,15.38c.63,2.81-1.33,2.81-2.27,1.56L13.22,19l-1.1,3.83a1.29,1.29,0,0,1-1.48.94L2.35,22l2.23,8.21c.47,1.8.86,2.58-.47,3l-3,1.41,14.47,12a2,2,0,0,1,.63,2L15,52.85c5-.63,9.47-1.1,14.39-1.72l1.1.93-.39,15.57Z"/></clipPath><clipPath id="clip-path-2" transform="translate(7.3 4.78)"><path class="cls-1" d="M31.22,69.71h1.2L32,54.15l1.1-.93c5,.54,9.46,1.09,14.39,1.72l-1.25-4.23a2,2,0,0,1,.62-2l14.47-12-3-1.41c-1.33-.47-.94-1.25-.47-3L60.08,24l-8.37,1.8A1.2,1.2,0,0,1,50.23,25a.43.43,0,0,0,0-.05v-.14l-1-3.84-6.7,7.67c-.94,1.17-2.82,1.17-2.27-1.57l2.9-15.48L39.3,13.68c-1.1.62-2.11.7-2.74-.39l-5.34-10-5.32,10c-.62,1.09-1.64,1-2.73.39l-3.83-2,2.88,15.38c.63,2.81-1.33,2.81-2.27,1.56L13.22,21l-1.1,3.83a1.29,1.29,0,0,1-1.48.94L2.35,24l2.23,8.21c.47,1.8.86,2.58-.47,3l-3,1.41,14.47,12a2,2,0,0,1,.63,2L15,54.85c5-.63,9.47-1.1,14.39-1.72l1.1.93-.39,15.57Z"/></clipPath></defs><g class="cls-2"><rect class="cls-3" width="78.67" height="66.55"/><g class="cls-4"><path class="cls-5" d="M26.22,51.33c1.56-2.11,4.85-6.33,6.41-8.44a1,1,0,0,1,.63-.55c.23-.08.54.08.78.15.47.08.78-.31,1.17-.7a13.12,13.12,0,0,0,2.42-3.13,12.8,12.8,0,0,1,.94-1.8A12.25,12.25,0,0,1,40,35.57a14.49,14.49,0,0,0,3.13-3.67c1.72-3,4.69.62,5.79,2.19.34.51.7,1,1.09,1.48s1.1.55,1.56,1A13.41,13.41,0,0,0,53,38a14.54,14.54,0,0,1,2,2c1.09,1.18,1.64,2.74,2.5,4.07,1.17,1.72,2.35,3.36,3.6,5,.7.94,1.72,2,2.81,1.72-.47.08.71.86.71.86-3-.07-6.1,0-9.15,0h-29C26.4,51.33,26.22,51.33,26.22,51.33Z" transform="translate(7.3 4.78)"/><path class="cls-6" d="M46.66,43.39c.07-.07.15-.07.23-.15a2.85,2.85,0,0,0,.63-.71,7.76,7.76,0,0,1,.86-.86c.15-.15.23-.31.39-.47s.39-.15.31-.39c-.31-.08-.7.32-1,.47a7.9,7.9,0,0,0-1.09.63c-.31.15-.63.55-.94.55a2.44,2.44,0,0,1-1-.16,1.21,1.21,0,0,1-.86-.39,8.29,8.29,0,0,1-.62-.71c-.16-.15-.39-.23-.47-.47a1.86,1.86,0,0,1-.08-.62c0-.24.16-.47.16-.7a1.16,1.16,0,0,0-.08-.32c0-.08-.16-.08-.16-.15s.16-.24.16-.32a1.33,1.33,0,0,0,.16-.78c-.24-.08-1.8,1.1-1.18.08.16-.31.24-.63.39-.94a4.71,4.71,0,0,1,.55-.7c.16-.16.47-.32.47-.55-.16-.08-.31.16-.47.23s-.31.24-.47.32-.23.31-.31.23.08-.15.08-.23a2.27,2.27,0,0,0,.08-.63c.07-.23.15-.39.23-.62.16-.4.47-.79.63-1.18.46-1.09.46-2.66,1.56-3.2a1.41,1.41,0,0,0-1.1.15c-.78.39-1.17,1.57-1.72,2.27a10.39,10.39,0,0,1-2.19,2.35,5.71,5.71,0,0,0-1.4,1.33,11.72,11.72,0,0,0-.94,1.79A11.92,11.92,0,0,1,35,41.67a1.59,1.59,0,0,1-1.17.71c-.23,0-.55-.16-.78-.16a1.4,1.4,0,0,0-.63.55c-1.56,2.11-4.84,6.33-6.41,8.44h5.79a55.36,55.36,0,0,0,3.28-5.55c.16.71-.31,1.33-.47,2.11,1-1.33,2-2.81,3-4.14a48.45,48.45,0,0,0-2.81,7.66c0-.08.94,0,.94,0H43c.24,0,.39-.15.63-.15a13.08,13.08,0,0,1,1.88-.08,3.1,3.1,0,0,0,.86,0c.23-.08.23-.24.23-.47.23-1.25,1.33-1.41,1.41-2.74.08-.94-.24-1.33.7-2.27-.47-.07-1.41.16-1.56-.31s.54-1,.31-1.72a1.34,1.34,0,0,1-.94.31c-.08,0,.24-.54.24-.54Z" transform="translate(7.3 4.78)"/><path class="cls-7" d="M34.77,47.9c.16-.71.63-1.33.47-2.11A48.49,48.49,0,0,1,32,51.34h2.82a76.21,76.21,0,0,1,2.81-7.66A49.07,49.07,0,0,1,34.77,47.9Z" transform="translate(7.3 4.78)"/><path class="cls-5" d="M-.66,50.63c1.57-2.11,4.77-6.26,6.42-8.37a1.25,1.25,0,0,1,.54-.55c.24-.08.55.08.79.16.47.08.78-.31,1.09-.71A13.74,13.74,0,0,0,10.53,38a11,11,0,0,1,.94-1.8,11.72,11.72,0,0,1,1.4-1.33,12.84,12.84,0,0,0,3-3.68c.94-1.48,2.35.32,3.13,1l2.82,2.58a18.61,18.61,0,0,1,1.72,1.72c.47.55.86,1.17,1.4,1.72a7.87,7.87,0,0,1,1.41,1.1,15.48,15.48,0,0,1,1.49,2.26c2.5,4.23,5.94,6.73,9.3,9.15Z" transform="translate(7.3 4.78)"/><path class="cls-6" d="M14.27,48c0-.08,0-.08-.08-.16-.07-.23-.23-.31-.39-.55s-.07-.46-.15-.7a1.49,1.49,0,0,0-.39-.62c-.16-.24-.32-.32-.39-.63-.24-.55.07-.94.31-1.41s.39-1.09.62-1.64A3,3,0,0,1,15,40.7a7.94,7.94,0,0,0,.7-.4l.08-.07a4,4,0,0,0-1.17.31,7.25,7.25,0,0,1,2.34-2c-.78-.07-1.41.55-2,1a8.56,8.56,0,0,1-.94.63c-.16.07-.24.07-.31,0a8.69,8.69,0,0,1,1.72-2.74c.31-.39.7-.7,1-1.1s.55-1,.86-1.33c-.86.71-1.72,1.88-2.73,2.12a27.87,27.87,0,0,0,3-6.57c-.47-.24-.94-.08-1.33.54a12.86,12.86,0,0,1-3,3.74,5.59,5.59,0,0,0-1.45,1.38c-.31.55-.63,1.17-.94,1.8a13.47,13.47,0,0,1-2.34,3.13c-.32.31-.71.7-1.1.7-.23,0-.55-.16-.78-.16a1.45,1.45,0,0,0-.55.55C4.5,44.34,1.29,48.49-.35,50.6H2.93a10,10,0,0,1,2.19.08,12.18,12.18,0,0,0,2.74.53c.7-.07,1.1-.54,1.8-.62a23.55,23.55,0,0,1,3.36,0c.39,0,.86.08,1-.31a2.71,2.71,0,0,0,.2-1.22C14,48.68,14.27,48.36,14.27,48Z" transform="translate(7.3 4.78)"/><path class="cls-5" d="M11.86,51.1c1.72-2.51,5.16-7.28,6.88-9.78a1.61,1.61,0,0,1,.62-.62c.24-.08.55.15.86.15.47.08.86-.47,1.18-.86A17.54,17.54,0,0,0,24,36.39a17.71,17.71,0,0,1,1-2.11,9.07,9.07,0,0,1,1.49-1.48,16.76,16.76,0,0,0,3.36-4.23c.47-.86,1.25-.93,1.8-.31l3.13,3.83A18.58,18.58,0,0,0,38.67,36a14.44,14.44,0,0,1,2.55,1.92,12.75,12.75,0,0,1,1.56,2.58A37,37,0,0,0,53.15,51.92Z" transform="translate(7.3 4.78)"/><path class="cls-6" d="M34.38,41.21h0c.23-.15,1-.62.7-.86-.15-.08-.54.16-.62.24-.32.23-1.1,1.17-1.49,1.09-.08-.7.7-1.8,1.1-2.34a2.55,2.55,0,0,0,.47-1c.15-.31.15-.7.39-.94.07-.08.23-.16.23-.31-.16-.08-.23.08-.31.15s0,.08-.06.08h0c-1.88,2.66-3.6,6.34-6.89,7.28A16.16,16.16,0,0,1,28,42.09,10.92,10.92,0,0,1,28.61,40,9.38,9.38,0,0,1,30,37.91a5,5,0,0,1,.86-.86c.16-.16.78-.55.7-.86,0-.08-.07-.08-.15-.08s-.08.1-.19.1a1.38,1.38,0,0,1-.47.31c-.94.55-1.8,1.1-2.74,1.72a2.48,2.48,0,0,0-.62.63c-.08.08-.47.55-.55.31.08-.31.31-.55.39-.86a2.78,2.78,0,0,1,.32-.86c.15-.23.54-.7.78-1a23.74,23.74,0,0,0,2.58-3,.29.29,0,0,0,.08-.23c-.47.39-.86.78-1.33,1.17a8.89,8.89,0,0,1-1.41,1.1c-.08.08-.08.08-.16.08s-.08-.16-.08-.16a4.37,4.37,0,0,1,.47-.78L29,33.7a15.6,15.6,0,0,0,.86-1.8,41.28,41.28,0,0,0,1.41-4c-.47-.23-1-.08-1.41.63a15.42,15.42,0,0,1-3.36,4.22A6.74,6.74,0,0,0,25,34.21a17.71,17.71,0,0,0-1,2.11,14.49,14.49,0,0,1-2.58,3.59c-.39.47-.78.86-1.18.86-.23,0-.54-.23-.86-.15a1.14,1.14,0,0,0-.62.62c-1.41,2-2.82,4.07-4.3,6.1l-2.11,3c-.47.63-.63.94-.08,1.57a1.92,1.92,0,0,0,1.48.7c.71.08,1.57-.31,2.27-.15s.24.62.31,1.32A4.55,4.55,0,0,0,17,55.43a1.25,1.25,0,0,0,.55.54,2,2,0,0,0,1.17.16l3.6-.47A15.59,15.59,0,0,0,27,54.41c.37-.22.74-.45,1.09-.7a2.6,2.6,0,0,0,.71-.94c.62-.94,1.33-1.8,1.87-2.82a11.55,11.55,0,0,1,1.09-1.74c.47-.54.31-.78.47-1.4s.62-1,.7-1.57a12.34,12.34,0,0,1,0-1.72A9.22,9.22,0,0,1,34.38,41.21Z" transform="translate(7.3 4.78)"/></g></g><g class="cls-2"><rect class="cls-5" x="22.29" y="53.1" width="33.86" height="23.07"/></g><g class="cls-2"><path class="cls-8" d="M33.6,45.12l-4.77.09a7.56,7.56,0,0,0,1.39-1.89,8.92,8.92,0,0,0,.86-2.27,19.26,19.26,0,0,0,1.14,2.27C32.74,44,33.22,44.64,33.6,45.12Z" transform="translate(7.3 4.78)"/></g><path class="cls-9" d="M31.22,67.71h1.2L32,52.15l1.1-.93c5,.54,9.46,1.09,14.39,1.72l-1.25-4.23a2,2,0,0,1,.62-2l14.47-12-3-1.41c-1.33-.47-.94-1.25-.47-3L60.08,22l-8.37,1.8A1.2,1.2,0,0,1,50.23,23a.43.43,0,0,0,0-.05v-.14l-1-3.84-6.7,7.67c-.94,1.17-2.82,1.17-2.27-1.57l2.9-15.48L39.3,11.68c-1.1.62-2.11.7-2.74-.39l-5.34-10-5.32,10c-.62,1.09-1.64,1-2.73.39l-3.83-2,2.88,15.38c.63,2.81-1.33,2.81-2.27,1.56L13.22,19l-1.1,3.83a1.29,1.29,0,0,1-1.48.94L2.35,22l2.23,8.21c.47,1.8.86,2.58-.47,3l-3,1.41,14.47,12a2,2,0,0,1,.63,2L15,52.85c5-.63,9.47-1.1,14.39-1.72l1.1.93-.39,15.57Z" transform="translate(7.3 4.78)"/><circle class="cls-6" cx="38.53" cy="22.85" r="2.39"/></svg>
